<svg width="493" height="349" viewBox="0 0 493 349" fill="none" xmlns="http://www.w3.org/2000/svg">
<path d="M424.31 175.136H381.764V83.6606H424.31V175.136Z" fill="#072050"/>
<path d="M471.611 143.032H335.153V54.9657C335.153 51.878 337.663 49.3691 340.753 49.3691H466.011C469.101 49.3691 471.611 51.878 471.611 54.9657V143.032Z" fill="#747282"/>
<path d="M458.481 156.669H345.58C339.079 156.669 333.801 151.394 333.801 144.897V140.394H470.26V144.897C470.26 151.394 464.982 156.669 458.481 156.669Z" fill="#747282"/>
<path d="M330.325 54.9013V142.967L363.796 142.452L398.876 141.873L409.947 141.68L445.349 141.102L466.783 140.78V54.9013C466.783 51.8135 464.273 49.3047 461.183 49.3047H335.86C332.835 49.369 330.325 51.8778 330.325 54.9013Z" fill="#2D2D3A"/>
<path d="M461.699 57.4101V135.119C461.699 135.376 461.442 135.634 461.184 135.634H335.926C335.668 135.634 335.411 135.376 335.411 135.119V57.4101C335.411 57.1528 335.668 56.8955 335.926 56.8955H461.184C461.506 56.8955 461.699 57.1528 461.699 57.4101Z" fill="white"/>
<path d="M455.004 156.669H342.104C335.603 156.669 330.325 151.394 330.325 144.897V140.394H466.783V144.897C466.783 151.394 461.505 156.669 455.004 156.669Z" fill="#A29FB0"/>
<path d="M425.395 175.453H368.365C366.628 175.453 365.211 174.037 365.211 172.301C365.211 170.564 366.628 169.148 368.365 169.148H425.395C427.133 169.148 428.549 170.564 428.549 172.301C428.549 174.037 427.133 175.453 425.395 175.453Z" fill="#A29FB0"/>
<path d="M341.396 70.598H453.588C454.554 70.598 455.262 69.8261 455.262 68.9255V62.364C455.262 61.399 454.489 60.6914 453.588 60.6914H341.396C340.431 60.6914 339.723 61.4634 339.723 62.364V68.9255C339.723 69.8261 340.495 70.598 341.396 70.598Z" fill="#6E89C4"/>
<path d="M446.574 65.4518C446.574 66.6741 447.54 67.639 448.698 67.639C449.857 67.639 450.822 66.6741 450.822 65.4518C450.822 64.2296 449.857 63.2646 448.698 63.2646C447.475 63.2646 446.574 64.2939 446.574 65.4518Z" fill="#EA5444"/>
<path d="M440.974 67.639C439.8 67.639 438.849 66.6598 438.849 65.4518C438.849 64.2439 439.8 63.2646 440.974 63.2646C442.147 63.2646 443.098 64.2439 443.098 65.4518C443.098 66.6598 442.147 67.639 440.974 67.639Z" fill="#FFC543"/>
<path d="M433.249 67.639C432.076 67.639 431.125 66.6598 431.125 65.4518C431.125 64.2439 432.076 63.2646 433.249 63.2646C434.422 63.2646 435.373 64.2439 435.373 65.4518C435.373 66.6598 434.422 67.639 433.249 67.639Z" fill="#A2CC3B"/>
<path d="M417.092 87.967H454.554C455.133 87.967 455.584 87.5167 455.584 86.9377V75.4873C455.584 74.9083 455.133 74.458 454.554 74.458H417.092C416.513 74.458 416.063 74.9083 416.063 75.4873V86.9377C416.063 87.5167 416.513 87.967 417.092 87.967Z" fill="#313D6E"/>
<path d="M371.071 105.014H408.533C409.112 105.014 409.562 104.564 409.562 103.985V92.5341C409.562 91.9552 409.112 91.5049 408.533 91.5049H371.071C370.492 91.5049 370.041 91.9552 370.041 92.5341V103.985C370.041 104.564 370.492 105.014 371.071 105.014Z" fill="#678C6E"/>
<path d="M340.754 87.967H363.412C363.991 87.967 364.441 87.5167 364.441 86.9377V75.4873C364.441 74.9083 363.991 74.458 363.412 74.458H340.754C340.175 74.458 339.724 74.9083 339.724 75.4873V86.9377C339.724 87.5167 340.175 87.967 340.754 87.967Z" fill="#678C6E"/>
<path d="M340.754 105.271H363.412C363.991 105.271 364.441 104.82 364.441 104.241V92.791C364.441 92.212 363.991 91.7617 363.412 91.7617H340.754C340.175 91.7617 339.724 92.212 339.724 92.791V104.241C339.724 104.82 340.175 105.271 340.754 105.271Z" fill="#EA5444"/>
<path d="M369.783 85.3291H409.305V86.294H369.783V85.3291Z" fill="#072050"/>
<path d="M369.783 81.8555H409.305V82.8204H369.783V81.8555Z" fill="#072050"/>
<path d="M369.783 78.4463H409.305V79.4112H369.783V78.4463Z" fill="#072050"/>
<path d="M369.783 74.9727H409.305V75.9376H369.783V74.9727Z" fill="#072050"/>
<path d="M417.092 121.739H454.554C455.133 121.739 455.584 121.289 455.584 120.71V109.26C455.584 108.681 455.133 108.23 454.554 108.23H417.092C416.513 108.23 416.063 108.681 416.063 109.26V120.71C416.063 121.289 416.513 121.739 417.092 121.739Z" fill="#EA5444"/>
<path d="M369.783 119.038H409.305V120.003H369.783V119.038Z" fill="#072050"/>
<path d="M369.783 115.628H409.305V116.593H369.783V115.628Z" fill="#072050"/>
<path d="M369.783 112.154H409.305V113.119H369.783V112.154Z" fill="#072050"/>
<path d="M369.783 108.745H409.305V109.71H369.783V108.745Z" fill="#072050"/>
<path d="M416.191 101.797H455.713V102.762H416.191V101.797Z" fill="#072050"/>
<path d="M416.191 98.3232H455.713V99.2882H416.191V98.3232Z" fill="#072050"/>
<path d="M416.191 94.9141H455.713V95.879H416.191V94.9141Z" fill="#072050"/>
<path d="M416.191 91.4404H455.713V92.4054H416.191V91.4404Z" fill="#072050"/>
<path opacity="0.55" d="M356.587 49.3691L398.876 140.523H445.35L403.447 49.3691H356.587Z" fill="#C5CBED"/>
<path d="M324.856 5.05957L316.102 10.4632C309.794 14.3872 307.541 22.4926 310.888 29.1184C311.532 30.405 311.983 31.3056 311.918 31.177C311.596 30.8553 325.307 5.18823 325.307 5.18823" fill="#7C4B39"/>
<path d="M347.579 88.6221H352.084C356.204 88.6221 359.615 85.2127 359.615 81.0957V59.8673C359.615 55.7502 356.204 52.3408 352.084 52.3408H347.579C343.459 52.3408 340.048 55.7502 340.048 59.8673V81.0957C340.048 85.2127 343.459 88.6221 347.579 88.6221Z" fill="#FCBBA4"/>
<path d="M312.047 31.2414C311.854 32.9782 319.835 35.873 319.964 37.6742L318.677 41.2766C328.525 37.7385 319.835 43.1421 319.835 43.1421C322.732 51.8265 321.767 56.5868 330.07 59.9319C334.254 61.6044 338.824 62.3121 343.587 61.9904C349.959 61.5401 355.624 63.5343 360.258 61.3471C361.224 60.8968 362.125 60.2535 362.962 59.4173C364.571 57.8091 366.051 56.0079 367.274 54.078C367.725 53.3061 368.175 52.5341 368.626 51.7622C371.136 46.8732 376.286 32.6566 375.899 26.8027C374.741 10.2703 358.906 -0.79426 340.626 0.427983C340.176 0.492311 339.725 0.492311 339.21 0.492311C329.362 1.19993 320.93 6.41054 315.78 14.0013C315.523 14.3873 315.265 14.8376 315.008 15.2236C313.528 17.6037 312.755 27.9606 312.755 27.9606C312.433 28.9899 312.24 30.0834 312.047 31.2414Z" fill="#7C4B39"/>
<path d="M312.82 36.5166L313.077 41.0839L313.463 48.6103L314.107 51.2478C314.171 52.4057 314.751 58.6456 315.008 59.8035C317.068 70.482 324.084 72.7335 334.962 74.0844C335.284 74.1488 335.606 74.1488 335.928 74.1488C337.086 74.2774 338.245 74.2774 339.468 74.2131C340.626 74.1488 341.785 74.0201 342.879 73.8271C345.068 73.4411 347.127 72.7335 349.058 71.8329C353.886 69.5814 357.812 65.8504 360.387 61.3474C362.318 57.938 363.477 54.0139 363.605 49.8969C363.605 49.6396 363.605 49.3179 363.605 49.0606C363.605 48.739 363.605 48.4173 363.605 48.0314V47.8384V47.0021L363.477 44.8793L363.091 37.4815V37.4172L363.026 36.0663L362.962 34.9727L362.897 34.0077V33.7504C362.769 32.0136 362.447 30.4053 361.932 28.7971C361.61 27.7035 361.16 26.61 360.709 25.5807C360.645 25.3877 360.58 25.2591 360.516 25.1304C360.13 24.2941 359.679 23.4579 359.228 22.6216C357.426 19.5338 354.916 16.8963 352.019 14.9022C351.44 14.5162 350.861 14.0659 350.217 13.7443C345.969 11.2354 341.013 9.94887 335.734 10.2062C331.357 10.4635 328.139 11.7501 324.599 13.8729C322.475 15.1595 320.544 16.7034 318.87 18.5689C316.489 21.142 315.008 24.1655 313.85 27.4462C313.785 27.6392 313.721 27.8322 313.657 28.0252C313.335 29.1188 313.077 30.2124 312.948 31.3703C312.755 32.9142 312.691 34.7154 312.82 36.5166Z" fill="#FFC7B0"/>
<path d="M321.96 14.0013C316.618 28.6682 330.65 27.446 331.294 34.2005C331.358 34.9724 331.616 36.066 331.809 41.5983L332.903 45.072C333.225 46.1656 334.19 46.8732 335.349 46.8732C336.765 46.8732 337.859 45.7153 337.859 44.3644V44.3001L337.73 38.8322L340.434 46.1013C342.429 51.3119 345.39 56.0722 349.188 60.0606C352.342 63.3413 356.011 66.1718 360.066 68.2946C360.066 68.2946 377.188 58.1307 377.188 34.9081C377.188 33.0426 377.059 31.1127 376.866 29.1185C376.673 27.3173 376.351 25.6448 375.965 24.0366C368.884 -4.7826 333.418 5.05967 330.006 6.34624C326.466 7.63281 321.96 14.0013 321.96 14.0013Z" fill="#7C4B39"/>
<path d="M309.794 52.0836C309.794 52.148 309.794 52.4696 309.794 52.4696C309.858 54.0778 311.21 55.3001 314.621 55.2357L314.171 42.8203C311.403 47.0017 310.051 49.4462 309.794 52.0836Z" fill="#FFC7B0"/>
<path d="M311.661 37.0953H319.256C320.157 37.0953 320.865 36.3877 320.865 35.4871C320.865 34.5865 320.157 33.8789 319.256 33.8789H311.661C310.76 33.8789 310.052 34.5865 310.052 35.4871C310.052 36.3234 310.76 37.0953 311.661 37.0953Z" fill="#7C4B39"/>
<path d="M315.908 42.7559C316.551 42.7559 317.066 42.2413 317.066 41.598V39.9255C317.066 39.2822 316.551 38.7676 315.908 38.7676C315.264 38.7676 314.749 39.2822 314.749 39.9255V41.598C314.749 42.2413 315.264 42.7559 315.908 42.7559Z" fill="#081344"/>
<path opacity="0.2" d="M349.252 59.9966C352.406 63.2774 356.075 66.1078 360.13 68.2307C360.13 68.2307 377.252 58.0668 377.252 34.8442C377.252 32.9787 377.123 31.0488 376.93 29.0546C376.737 27.2534 376.415 25.5809 376.029 23.9727C375.257 28.4113 373.261 35.1015 368.176 43.3355C360.452 55.9439 352.02 59.2247 349.252 59.9966Z" fill="#081344"/>
<path d="M314.686 59.0313L314.943 67.7156C314.943 75.1134 323.697 78.0725 330.198 77.3649L340.561 76.2713L339.532 67.3296L336.699 50.1539L341.27 37.3525L331.872 41.2766C332.58 51.4405 325.306 59.6745 315.072 59.2242L314.686 59.0313Z" fill="#7C4B39"/>
<path d="M338.502 36.9668C337.472 36.9668 336.636 37.8031 336.636 38.8967L336.7 45.3295L336.764 50.9904H338.953C339.146 50.9904 339.275 50.9904 339.403 50.9904C343.137 50.7331 346.033 47.4523 346.033 43.7856C346.033 41.8558 345.196 40.2476 343.909 38.961C342.75 37.8031 341.206 37.1598 339.468 37.0955C339.275 37.0955 339.082 37.0311 338.888 37.0955L338.502 36.9668Z" fill="#FCBBA4"/>
<path d="M405.086 236.578H345.482V225.578H405.086V236.578Z" fill="#081344"/>
<path d="M177.175 237.469H122.592V226.469H177.175V237.469Z" fill="#716F82"/>
<path d="M118.946 189.169H131.369V348.512H118.946V189.169Z" fill="#716F82"/>
<path d="M168.767 188.203H181.189V348.511H168.767V188.203Z" fill="#B1AEC1"/>
<path d="M168.767 181.964H181.189V248.351H168.767V181.964Z" fill="#716F82"/>
<path d="M474.96 237.469H420.377V226.469H474.96V237.469Z" fill="#716F82"/>
<path d="M416.708 189.168H429.131V348.511H416.708V189.168Z" fill="#716F82"/>
<path d="M466.595 188.204H479.018V348.512H466.595V188.204Z" fill="#716F82"/>
<path d="M208.287 85.2773H249.289V173.407H208.287V85.2773Z" fill="#585668"/>
<path d="M164.709 144.396H299.43V62.1839C299.43 59.2248 297.048 56.7803 294.023 56.7803H170.052C167.091 56.7803 164.645 59.1604 164.645 62.1839V144.396H164.709Z" fill="#DDDDDD"/>
<path d="M177.325 157.583H289.324C295.567 157.583 300.652 152.501 300.652 146.261V141.887H165.932V146.261C165.996 152.501 171.081 157.583 177.325 157.583Z" fill="#DDDDDD"/>
<path d="M169.344 62.184V144.396H304.064V62.184C304.064 59.2249 301.683 56.8447 298.658 56.8447H174.686C171.725 56.8447 169.344 59.2249 169.344 62.184Z" fill="#767684"/>
<path d="M174.237 61.9912V136.805C174.237 137.063 174.494 137.32 174.752 137.32H298.659C298.916 137.32 299.174 137.063 299.174 136.805V61.9912C299.174 61.7339 298.916 61.4766 298.659 61.4766H174.752C174.494 61.5409 174.237 61.7339 174.237 61.9912Z" fill="#1F3468"/>
<path d="M169.344 141.887V146.261C169.344 150.828 172.047 154.752 175.909 156.554C177.39 157.261 178.999 157.647 180.737 157.647H292.736C298.979 157.647 304.064 152.565 304.064 146.325V141.951H169.344V141.887Z" fill="#ABA9C4"/>
<path d="M250.06 70.7402H291.898V72.2198H250.06V70.7402Z" fill="#6E89C4"/>
<path d="M212.083 70.7402H231.908V72.2198H212.083V70.7402Z" fill="#DDDDDD"/>
<path d="M183.505 70.7402H203.33V72.2198H183.505V70.7402Z" fill="#FFC543"/>
<path d="M205.647 70.7402H210.346V72.2198H205.647V70.7402Z" fill="#6E89C4"/>
<path d="M234.226 70.7402H248.129V72.2198H234.226V70.7402Z" fill="#EA5444"/>
<path d="M250.06 107.857H291.898V109.337H250.06V107.857Z" fill="#6E89C4"/>
<path d="M212.083 107.857H231.908V109.337H212.083V107.857Z" fill="#DDDDDD"/>
<path d="M183.505 107.857H203.33V109.337H183.505V107.857Z" fill="#FFC543"/>
<path d="M205.647 107.857H210.346V109.337H205.647V107.857Z" fill="#6E89C4"/>
<path d="M234.226 107.857H248.129V109.337H234.226V107.857Z" fill="#A29FB0"/>
<path d="M225.323 96.9531H183.484V95.4736H225.323V96.9531Z" fill="#6E89C4"/>
<path d="M263.306 96.9531H243.48V95.4736H263.306V96.9531Z" fill="#DDDDDD"/>
<path d="M291.952 96.9531H272.127V95.4736H291.952V96.9531Z" fill="#FFC543"/>
<path d="M269.775 96.9531H265.076V95.4736H269.775V96.9531Z" fill="#6E89C4"/>
<path d="M241.226 96.9531H227.322V95.4736H241.226V96.9531Z" fill="#A29FB0"/>
<path d="M276.193 76.916H291.898V78.3956H276.193V76.916Z" fill="#EA5444"/>
<path d="M238.216 76.916H244.975V78.3956H238.216V76.916Z" fill="#6E89C4"/>
<path d="M183.505 76.916H216.396V78.3956H183.505V76.916Z" fill="#DDDDDD"/>
<path d="M218.713 76.916H236.479V78.3956H218.713V76.916Z" fill="#6E89C4"/>
<path d="M247.292 76.916H274.262V78.3956H247.292V76.916Z" fill="#6E89C4"/>
<path d="M276.193 114.033H291.898V115.513H276.193V114.033Z" fill="#6E89C4"/>
<path d="M238.216 114.033H244.975V115.513H238.216V114.033Z" fill="#6E89C4"/>
<path d="M183.505 114.033H216.396V115.513H183.505V114.033Z" fill="#6E89C4"/>
<path d="M218.713 114.033H236.479V115.513H218.713V114.033Z" fill="#6E89C4"/>
<path d="M247.292 114.033H274.262V115.513H247.292V114.033Z" fill="#6E89C4"/>
<path d="M276.193 101.683H291.898V103.162H276.193V101.683Z" fill="#EA5444"/>
<path d="M238.216 101.683H244.975V103.162H238.216V101.683Z" fill="#6E89C4"/>
<path d="M183.505 101.683H216.396V103.162H183.505V101.683Z" fill="#DDDDDD"/>
<path d="M218.713 101.683H236.479V103.162H218.713V101.683Z" fill="#6E89C4"/>
<path d="M247.292 101.683H274.262V103.162H247.292V101.683Z" fill="#6E89C4"/>
<path d="M276.193 83.0918H291.898V84.5713H276.193V83.0918Z" fill="#DDDDDD"/>
<path d="M247.292 83.0918H274.262V84.5713H247.292V83.0918Z" fill="#6E89C4"/>
<path d="M262.989 90.7725H247.283V89.2929H262.989V90.7725Z" fill="#DDDDDD"/>
<path d="M291.943 90.7725H264.973V89.2929H291.943V90.7725Z" fill="#6E89C4"/>
<path d="M209.251 175.659H264.156C265.83 175.659 267.182 174.308 267.182 172.636C267.182 170.963 265.83 169.612 264.156 169.612H209.251C207.578 169.612 206.226 170.963 206.226 172.636C206.162 174.308 207.513 175.659 209.251 175.659Z" fill="#4A4960"/>
<path d="M108.325 189.04H281.537V180.098C281.537 177.396 279.349 175.209 276.645 175.209H113.217C110.513 175.209 108.325 177.396 108.325 180.098V189.04Z" fill="#E79271"/>
<path d="M158.789 180.098V189.04H492.275V180.098C492.275 177.396 490.087 175.209 487.383 175.209H163.745C160.977 175.209 158.789 177.396 158.789 180.098Z" fill="#A5483C"/>
<path d="M255.275 175.209C257.914 179.519 261.068 184.665 263.771 189.04H345.389L344.294 175.209H255.275Z" fill="#84352F"/>
<path d="M90.9305 348.514L5.25781 348.514L5.25773 242.555L90.9305 242.555L90.9305 348.514Z" fill="#C1442D"/>
<path d="M121.352 348.512L37.1602 348.512L37.1601 242.553L121.352 242.553L121.352 348.512Z" fill="#893424"/>
<path d="M122.323 279.595H42.4434L42.4434 250.583H122.323V279.595Z" fill="#F16A51"/>
<path d="M122.323 313.643H42.4434L42.4434 284.63H122.323V313.643Z" fill="#F16A51"/>
<path d="M122.325 348.512H42.4453L42.4453 318.731H122.325V348.512Z" fill="#F16A51"/>
<path d="M96.8671 266.639H76.9133C76.0765 266.639 75.3685 265.931 75.3685 265.095C75.3685 264.258 76.0765 263.551 76.9133 263.551H96.8671C97.7039 263.551 98.4119 264.258 98.4119 265.095C98.4763 265.931 97.7683 266.639 96.8671 266.639Z" fill="white"/>
<path d="M97.7033 300.475H77.7494C76.9126 300.475 76.2046 299.768 76.2046 298.932C76.2046 298.095 76.9126 297.388 77.7494 297.388H97.7033C98.54 297.388 99.248 298.095 99.248 298.932C99.248 299.768 98.54 300.475 97.7033 300.475Z" fill="white"/>
<path d="M97.7033 334.312H77.7494C76.9126 334.312 76.2046 333.605 76.2046 332.768C76.2046 331.932 76.9126 331.225 77.7494 331.225H97.7033C98.54 331.225 99.248 331.932 99.248 332.768C99.248 333.605 98.54 334.312 97.7033 334.312Z" fill="white"/>
<path d="M316.746 348.13L276.71 348.511C274.328 348.511 272.397 346.932 272.333 344.917C272.333 343.337 273.427 341.976 275.165 341.431L294.926 335.387L316.553 335.659L316.746 348.13Z" fill="#7F3954"/>
<path d="M295.439 341.177L290.741 336.159" stroke="#081344" stroke-width="1.4933" stroke-miterlimit="10" stroke-linecap="round"/>
<path d="M292.027 342.656L287.329 337.639" stroke="#081344" stroke-width="1.4933" stroke-miterlimit="10" stroke-linecap="round"/>
<path d="M288.746 344.586L283.404 338.925" stroke="#081344" stroke-width="1.4933" stroke-miterlimit="10" stroke-linecap="round"/>
<path d="M318.098 337.253C315.781 298.205 316.425 262.117 319.45 254.848C322.54 250.28 346.87 240.503 371.201 239.409L359.808 214.578C327.946 216.186 305.16 228.151 297.179 241.789C293.832 247.579 290.871 259.158 292.48 298.977C293.317 319.82 294.347 336.159 294.347 336.159L318.098 337.253Z" fill="#1C1C2D"/>
<path d="M281.088 348.307L241.052 348.512C238.67 348.512 236.739 346.976 236.675 345.081C236.675 343.597 237.833 342.317 239.571 341.805L259.332 336.224L280.959 336.531L281.088 348.307Z" fill="#A0523A"/>
<path d="M259.846 342.077L255.147 337.06" stroke="#081344" stroke-width="1.4933" stroke-miterlimit="10" stroke-linecap="round"/>
<path d="M256.434 343.557L251.735 338.539" stroke="#081344" stroke-width="1.4933" stroke-miterlimit="10" stroke-linecap="round"/>
<path d="M253.088 345.486L247.81 339.825" stroke="#081344" stroke-width="1.4933" stroke-miterlimit="10" stroke-linecap="round"/>
<path d="M282.567 337.253C280.25 298.205 280.893 262.117 283.919 254.848C287.008 250.28 311.339 240.503 335.67 239.409L324.277 214.578C292.415 216.186 269.629 228.151 261.648 241.789C258.301 247.579 255.34 259.158 256.949 298.977C257.786 319.82 258.815 336.159 258.815 336.159L282.567 337.253Z" fill="#1C1C2D"/>
<path d="M316.809 221.719C316.809 226.093 318.354 230.081 320.929 233.233C324.212 237.222 329.232 239.795 334.897 239.795H365.278C366.179 239.795 367.08 239.731 367.917 239.602C370.17 239.28 372.23 238.573 374.096 237.479C374.418 237.286 374.74 237.093 375.062 236.9C380.018 233.684 383.301 228.087 383.301 221.783L382.721 212.134L317.26 211.555L316.809 221.719Z" fill="#1C1C2D"/>
<path d="M295.954 170.256L280.313 167.747C279.154 167.554 278.382 166.461 278.575 165.367C278.768 164.209 279.862 163.437 280.957 163.63L296.598 166.139C297.756 166.332 298.529 167.426 298.336 168.519C298.143 169.677 297.113 170.449 295.954 170.256Z" fill="#FCBBA4"/>
<path d="M290.933 174.502L278.381 172.508C277.222 172.315 276.45 171.221 276.643 170.128C276.836 168.97 277.93 168.198 279.025 168.391L291.576 170.385C292.735 170.578 293.507 171.672 293.314 172.765C293.185 173.923 292.091 174.695 290.933 174.502Z" fill="#FCBBA4"/>
<path d="M293.894 180.034L279.025 177.653C277.866 177.46 277.094 176.367 277.287 175.273C277.48 174.115 278.574 173.343 279.668 173.536L294.537 175.917C295.696 176.11 296.468 177.203 296.275 178.297C296.082 179.39 294.988 180.162 293.894 180.034Z" fill="#FCBBA4"/>
<path d="M289.196 166.267C289.389 166.267 291.255 166.267 293.379 166.203C296.984 166.139 300.524 166.911 303.743 168.519L309.922 171.542C309.922 171.542 306.382 182.028 305.867 182.092C293.959 184.215 289.904 178.811 289.904 178.811L289.196 166.267Z" fill="#FCBBA4"/>
<path d="M298.4 166.203H303.678V183.379H298.4V166.203Z" fill="white"/>
<path d="M338.309 185.244C350.796 185.244 362.189 177.975 367.403 166.653L367.66 166.074L383.945 116.284L363.863 109.723L347.964 158.226C346.097 161.829 342.3 164.145 338.18 164.08L303.551 163.759L303.358 184.923L337.987 185.244C338.116 185.244 338.245 185.244 338.309 185.244Z" fill="#1C1C2D"/>
<path d="M225.281 164.723C226.568 162.407 228.499 160.542 230.881 159.384H230.945C234.164 157.776 237.704 157.004 241.309 157.068L248.196 157.197C248.196 157.197 249.934 172.121 249.869 171.606C249.676 170.641 233.07 170.899 225.41 171.027C223.736 171.092 222.706 169.291 223.479 167.875L225.281 164.723Z" fill="#FCBBA4"/>
<path d="M245.813 156.039H252.379V173.601H245.813V156.039Z" fill="white"/>
<path d="M284.498 175.595C296.985 175.595 308.378 168.326 313.592 157.005L337.086 106.185L317.905 97.3076L294.41 148.127C292.608 151.987 288.746 154.496 284.434 154.431L249.804 154.11L249.611 175.274L284.24 175.595C284.305 175.595 284.434 175.595 284.498 175.595Z" fill="#3C3C39"/>
<path d="M311.211 116.156L311.597 160.542L312.112 217.023C312.112 217.023 313.335 218.374 316.939 220.303C320.093 221.976 325.05 224.035 332.58 225.964C341.399 228.216 353.757 228.602 364.378 228.345C376.028 228.087 385.555 227.058 385.555 227.058L385.297 116.156C385.297 100.524 373.969 87.5936 359.1 84.9562C357.297 84.6345 355.495 84.5059 353.564 84.5059H342.879C325.371 84.5059 311.211 98.6581 311.211 116.156Z" fill="#3C3C39"/>
<path d="M349.958 261.73H360.643V323.1H349.958V261.73Z" fill="#B1AEC1"/>
<path d="M360.643 265.204V278.649L349.958 274.725V265.654C352.597 265.526 357.746 265.333 360.643 265.204Z" fill="#716F82"/>
<path d="M322.41 267.005H386.455C389.738 267.005 392.441 264.303 392.441 261.023C392.441 257.742 389.738 255.04 386.455 255.04H322.41C319.127 255.04 316.424 257.742 316.424 261.023C316.424 264.368 319.127 267.005 322.41 267.005Z" fill="#2D2D3A"/>
<path d="M309.987 342.913H316.681C316.681 335.386 323.182 329.275 331.164 329.275H379.89C387.871 329.275 394.372 335.386 394.372 342.913H401.066C401.066 331.913 391.54 322.971 379.89 322.971H331.164C319.449 322.907 309.987 331.913 309.987 342.913Z" fill="#2D2D3A"/>
<path d="M347.513 313.45H363.154V323.035H347.513V313.45Z" fill="#2D2D3A"/>
<path d="M389.995 348.51H405.186V347.095C405.186 343.171 402.032 340.019 398.105 340.019H397.075C393.149 340.019 389.995 343.171 389.995 347.095V348.51Z" fill="#072050"/>
<path d="M304.966 348.51H320.156V347.095C320.156 343.171 317.002 340.019 313.076 340.019H312.046C308.12 340.019 304.966 343.171 304.966 347.095V348.51Z" fill="#072050"/>
<path d="M350.602 324.901H359.484V343.814H350.602V324.901Z" fill="#2D2D3A"/>
<path d="M346.87 348.51H362.061V347.095C362.061 343.171 358.907 340.019 354.98 340.019H353.95C350.024 340.019 346.87 343.171 346.87 347.095V348.51Z" fill="#072050"/>
<path d="M440.46 146.326L426.17 249.637C425.269 255.942 419.991 260.638 413.683 260.831L361.352 261.409L390.382 131.466H427.458C435.439 131.466 441.49 138.478 440.46 146.326Z" fill="#C1442D"/>
<path d="M299.624 261.41H372.294C378.474 261.41 383.559 256.328 383.559 250.152C383.559 243.976 378.474 238.895 372.294 238.895H299.624C293.444 238.895 288.359 243.976 288.359 250.152C288.359 256.392 293.444 261.41 299.624 261.41Z" fill="#F16A51"/>
<path d="M368.176 112.81C369.592 133.202 365.601 206.666 364.378 228.344C376.028 228.087 385.555 227.058 385.555 227.058L385.297 116.155C385.297 100.524 373.969 87.5935 359.1 84.9561C359.1 84.9561 366.502 88.8158 368.176 112.81Z" fill="#323230"/>
<path d="M331.743 86.4354H364.441V77.3008L331.743 81.1605V86.4354Z" fill="white"/>
<path d="M384.525 247.192L399.716 141.243C400.424 136.547 396.819 132.108 391.863 131.529C386.842 130.886 382.208 134.231 381.5 138.927L366.309 244.876C365.601 249.572 369.206 254.011 374.162 254.59C379.183 255.298 381.757 258.836 384.525 247.192Z" fill="#F16A51"/>
<path d="M311.597 160.542L312.112 217.022C312.112 217.022 313.335 218.373 316.94 220.303L324.471 135.196C324.471 135.132 317.583 152.372 311.597 160.542Z" fill="#1C1C2D"/>
<path opacity="0.32" d="M169.539 121.044L173.272 141.951L175.911 156.553C177.392 157.261 179.001 157.647 180.739 157.647H216.141C212.794 154.173 207.129 148.319 201.079 141.951C191.617 132.044 181.125 120.787 176.426 115.062L169.539 121.044Z" fill="#25253A"/>
<path d="M190.068 173.909H119.972C119.586 173.33 119.264 172.687 119.071 172.043L103.366 115.498C102.593 112.797 104.653 110.159 107.421 110.159H169.085C171.016 110.159 172.625 111.446 173.14 113.247L190.068 173.909Z" fill="#DDDDDD"/>
<path d="M106.777 113.505L122.418 169.986C123.126 172.623 125.572 174.424 128.275 174.424H194.059L176.551 111.189C176.036 109.388 174.362 108.102 172.496 108.102H110.896C108.064 108.102 106.069 110.803 106.777 113.505Z" fill="#A29FB0"/>
<path d="M110.254 115.949L123.063 162.009L125.767 171.658H190.971L188.267 162.009L174.879 113.827C174.428 112.154 172.884 110.996 171.081 110.996H113.987C111.477 110.996 109.546 113.505 110.254 115.949Z" fill="#1F3468"/>
<path d="M148.681 117.3H168.764L168.313 115.885H148.23L148.681 117.3Z" fill="#ECEEF0"/>
<path d="M130.466 117.3H139.992L139.542 115.885H130.015L130.466 117.3Z" fill="#EA5444"/>
<path d="M116.755 117.3H126.281L125.831 115.885H116.304L116.755 117.3Z" fill="#A29FB0"/>
<path d="M127.376 117.3H129.629L129.178 115.885H126.925L127.376 117.3Z" fill="#6E89C4"/>
<path d="M141.085 117.3H147.715L147.329 115.885H140.634L141.085 117.3Z" fill="#A29FB0"/>
<path d="M162.648 141.359H153.187L152.736 139.943H162.198L162.648 141.359Z" fill="#DDDDDD"/>
<path d="M176.359 141.359H166.897L166.447 139.943H175.973L176.359 141.359Z" fill="#FFC543"/>
<path d="M165.738 141.359H163.485L163.035 139.943H165.288L165.738 141.359Z" fill="#6E89C4"/>
<path d="M163.164 123.282H170.695L170.245 121.867H162.714L163.164 123.282Z" fill="#EA5444"/>
<path d="M144.948 123.282H148.166L147.715 121.867H144.497L144.948 123.282Z" fill="#6E89C4"/>
<path d="M118.687 123.282H134.457L134.006 121.867H118.236L118.687 123.282Z" fill="#EA5444"/>
<path d="M135.55 123.282H144.111L143.661 121.867H135.1L135.55 123.282Z" fill="#6E89C4"/>
<path d="M149.261 123.282H162.199L161.749 121.867H148.811L149.261 123.282Z" fill="#6E89C4"/>
<path d="M174.557 159.37H182.088L181.637 158.02H174.106L174.557 159.37Z" fill="#313D6E"/>
<path d="M165.032 129.329H172.562L172.112 127.914H164.581L165.032 129.329Z" fill="#DDDDDD"/>
<path d="M152.739 129.329H160.27L159.819 127.914H152.288L152.739 129.329Z" fill="#DDDDDD"/>
<path d="M122.677 129.329H135.615L135.165 127.914H122.227L122.677 129.329Z" fill="#6E89C4"/>
<path d="M174.492 135.312H161.554L161.104 133.896H174.042L174.492 135.312Z" fill="#6E89C4"/>
<path d="M122.226 162.073L124.993 171.723H191.807L189.103 162.073H122.226Z" fill="#A29FB0"/>
<path d="M158.207 174.617H238.344C240.211 174.617 241.756 173.073 241.756 171.207C241.756 169.342 240.211 167.798 238.344 167.798H158.272C156.405 167.798 154.86 169.342 154.86 171.207C154.796 173.073 156.341 174.617 158.207 174.617Z" fill="#A29FB0"/>
<path opacity="0.55" d="M126.732 108.102L128.083 110.996L151.384 162.009L153.766 167.284H178.934L176.552 162.009L153.251 110.996L151.899 108.102H126.732Z" fill="#CDD6F9"/>
<path opacity="0.55" d="M200.818 60.4336L235.448 136.213H272.523L237.894 60.4336H200.818Z" fill="#CDD6F9"/>
<path d="M127.891 174.359H174.235C176.102 174.359 177.646 172.815 177.646 170.949C177.646 169.084 176.102 167.54 174.235 167.54H127.891C126.024 167.54 124.479 169.084 124.479 170.949C124.479 172.815 125.96 174.359 127.891 174.359Z" fill="#DDDDDD"/>
<path d="M144.499 169.856H151.129V171.851H144.499V169.856Z" fill="#081344"/>
<path d="M153.124 169.856H157.951V171.851H153.124V169.856Z" fill="#081344"/>
<path d="M193.097 146.828V174.553H216.27V146.828C216.27 145.605 215.304 144.641 214.081 144.641H195.35C194.063 144.576 193.097 145.605 193.097 146.828Z" fill="#FC4F42"/>
<path d="M215.947 169.793C216.269 169.6 223.349 165.483 223.993 158.15C224.25 155.384 223.156 153.647 222.255 152.682C219.68 150.045 215.497 150.238 214.982 150.238L215.175 153.647C216.012 153.583 218.586 153.776 219.809 155.062C220.453 155.705 220.71 156.67 220.582 157.893C220.067 163.425 214.274 166.834 214.209 166.899L215.947 169.793Z" fill="#EA5444"/>
<path d="M203.909 174.553H216.268V146.828C216.268 145.606 215.302 144.641 214.079 144.641H213.307C213.242 146.056 212.856 157.12 209.766 165.097C207.063 171.98 204.681 174.039 203.909 174.553Z" fill="#EA5444"/>
<path opacity="0.79" d="M224.056 158.152C223.477 164.713 217.684 168.766 216.268 169.602V174.555H203.91C204.618 174.041 207.064 172.047 209.767 165.099C212.857 157.122 213.243 146.058 213.307 144.643H214.08C215.303 144.643 216.268 145.608 216.268 146.83V150.303C217.813 150.432 220.452 150.882 222.319 152.748C223.22 153.649 224.25 155.385 224.056 158.152ZM219.873 155.064C218.971 154.163 217.427 153.777 216.268 153.649V165.356C218.006 163.877 220.323 161.239 220.645 157.83C220.774 156.672 220.516 155.707 219.873 155.064Z" fill="#CE2D29"/>
<path d="M454.921 124.082L457.52 123.622L463.926 159.792L461.327 160.251L454.921 124.082Z" fill="#6075B0"/>
<path d="M453.955 123.307L458.012 122.59L459.941 133.485L455.885 134.203L453.955 123.307Z" fill="#6075B0"/>
<path d="M465.627 164.873L468.33 164.68L465.24 128.013L463.631 125.697L462.601 128.27L465.627 164.873Z" fill="#794061"/>
<path d="M469.361 166.738L471.935 167.253L479.016 131.165L478.05 128.463L476.377 130.65L469.361 166.738Z" fill="#072859"/>
<path d="M463.438 175.166H474.831L478.564 144.996H459.705L463.438 175.166Z" fill="#CF9E09"/>
<path d="M459.189 175.166H470.582L472.256 144.996H455.456L459.189 175.166Z" fill="#FFC107"/>
<path d="M107.551 226.519V243.115H49.6203C46.0157 243.115 42.9261 240.799 41.8319 237.583C41.51 236.747 41.3813 235.782 41.3813 234.817C41.3813 232.565 42.2824 230.443 43.8272 228.963C45.3077 227.483 47.4318 226.519 49.6846 226.519H107.551Z" fill="#F14747"/>
<path opacity="0.79" d="M94.5488 237.647V243.18H49.5562C45.9516 243.18 42.8619 240.864 41.7677 237.647H94.5488Z" fill="#CE2D29"/>
<path d="M119.91 226.519V243.115H81.9335C77.3634 243.115 73.6301 239.384 73.6301 234.817C73.6301 232.501 74.5313 230.443 76.0761 228.963C77.5565 227.483 79.6807 226.519 81.9335 226.519H119.91Z" fill="#9F293B"/>
<path d="M119.91 229.413V240.027H84.122C81.1611 240.027 78.7795 237.647 78.7795 234.688C78.7795 233.208 79.3588 231.922 80.3243 230.957C81.2898 229.992 82.6416 229.413 84.0576 229.413H119.91Z" fill="white"/>
<path d="M108.646 193.582V210.179H50.716C46.1459 210.179 42.4126 206.448 42.4126 201.88C42.4126 199.565 43.3137 197.506 44.8585 196.027C46.339 194.547 48.4631 193.582 50.716 193.582H108.646Z" fill="#FBAF3D"/>
<path d="M95.5137 199.114V193.582H50.521C46.9164 193.582 43.8268 195.898 42.7325 199.114H95.5137Z" fill="#FFD72E"/>
<path d="M119.91 193.582V210.179H81.9335C77.3634 210.179 73.6301 206.448 73.6301 201.88C73.6301 199.565 74.5313 197.506 76.0761 196.027C77.5565 194.547 79.6807 193.582 81.9335 193.582H119.91Z" fill="#F38154"/>
<path d="M119.91 196.412V207.026H84.122C81.1611 207.026 78.7795 204.646 78.7795 201.687C78.7795 200.208 79.3588 198.921 80.3243 197.956C81.2898 196.991 82.6416 196.412 84.0576 196.412H119.91Z" fill="white"/>
<path d="M111.67 210.243V226.84H53.7395C49.1694 226.84 45.4361 223.109 45.4361 218.541C45.4361 217.126 45.7579 215.775 46.4016 214.617C46.7878 213.91 47.3027 213.202 47.882 212.623C49.3625 211.144 51.4866 210.179 53.7395 210.179H111.67V210.243Z" fill="#A2CC3B"/>
<path d="M110.125 210.243V214.617H46.4015C46.7877 213.91 47.3026 213.202 47.8819 212.623C49.3624 211.144 51.4865 210.179 53.7394 210.179H110.125V210.243Z" fill="#709B2C"/>
<path d="M110.125 226.84V222.466H46.4015C46.7877 223.173 47.3026 223.881 47.8819 224.46C49.3624 225.94 51.4865 226.905 53.7394 226.905L110.125 226.84Z" fill="#709B2C"/>
<path d="M126.797 210.243V226.84H92.0386C87.4685 226.84 83.7352 223.109 83.7352 218.542C83.7352 216.226 84.6363 214.167 86.1811 212.688C87.6616 211.208 89.7857 210.243 92.0386 210.243H126.797Z" fill="#4C842F"/>
<path d="M126.797 213.138V223.752H94.227C91.2661 223.752 88.8846 221.372 88.8846 218.413C88.8846 216.933 89.4639 215.647 90.4294 214.682C91.3949 213.717 92.7466 213.138 94.1627 213.138H126.797Z" fill="white"/>
<path d="M5.07928 197.378C12.2241 207.091 26.578 208.699 26.578 208.699C26.578 208.699 29.3458 194.547 22.201 184.834C15.0562 175.12 0.702311 173.512 0.702311 173.512C0.702311 173.512 -2.06549 187.664 5.07928 197.378Z" fill="#517F38"/>
<path d="M35.0738 191.588C28.5084 198.021 28.8945 209.021 28.8945 209.021C28.8945 209.021 39.837 209.535 46.4024 203.103C52.9679 196.67 52.5817 185.669 52.5817 185.669C52.5817 185.669 41.5749 185.091 35.0738 191.588Z" fill="#3B6837"/>
<path d="M18.8529 186.699C17.5012 198.664 26.9632 209.6 26.9632 209.6C26.9632 209.6 38.5493 201.044 39.901 189.079C41.2527 177.114 31.7907 166.178 31.7907 166.178C31.7907 166.178 20.1403 174.733 18.8529 186.699Z" fill="#65B15B"/>
<path d="M19.6906 242.664H44.6007L52.7109 206.447H11.5803L19.6906 242.664Z" fill="#62324A"/>
<path d="M10.3584 242.664H35.2041L38.873 206.447H2.18375L10.3584 242.664Z" fill="#A0523A"/>
</svg>
